<svg xmlns="http://www.w3.org/2000/svg" viewBox="0 0 220 220" width="220" height="220">
  <defs>
    <linearGradient id="kbg" x1="0" y1="0" x2="1" y2="1">
      <stop offset="0" stop-color="#9CD65A"/>
      <stop offset="1" stop-color="#4E9127"/>
    </linearGradient>
  </defs>
  <rect width="220" height="220" rx="48" fill="url(#kbg)"/>
  <circle cx="110" cy="118" r="86" fill="#ffffff" opacity=".16"/>
  <g transform="translate(110 118) scale(.92) translate(-110 -116)">
    <!-- cream outline so the green pear reads on the green background -->
    <path d="M104 52 C99 68 99 78 104 86 C82 100 64 126 64 152 C64 184 86 202 110 202 C134 202 156 184 156 152 C156 126 138 100 116 86 C121 78 121 68 116 52 C113 44 106 44 104 52 Z" fill="none" stroke="#fbfff2" stroke-width="12" stroke-linejoin="round"/>
    <!-- stem + leaf -->
    <path d="M110 54 C107 40 112 30 122 26" fill="none" stroke="#7B5230" stroke-width="7" stroke-linecap="round"/>
    <path d="M120 42 C132 30 152 30 158 42 C146 52 128 52 120 42 Z" fill="#5FA23B"/>
    <!-- pear body -->
    <path d="M104 52 C99 68 99 78 104 86 C82 100 64 126 64 152 C64 184 86 202 110 202 C134 202 156 184 156 152 C156 126 138 100 116 86 C121 78 121 68 116 52 C113 44 106 44 104 52 Z" fill="#8BC34A"/>
    <path d="M110 86 C138 100 156 126 156 152 C156 184 134 202 110 202 C118 176 118 132 110 86 Z" fill="#5f9331" opacity=".25"/>
    <!-- unibrow -->
    <path d="M74 102 Q90 88 106 100 Q110 103 114 100 Q130 88 146 102" fill="none" stroke="#3a2a12" stroke-width="6" stroke-linecap="round" stroke-linejoin="round"/>
    <!-- smug, drooling face -->
    <circle cx="90" cy="122" r="16" fill="#fff"/>
    <circle cx="130" cy="122" r="16" fill="#fff"/>
    <circle cx="94" cy="124" r="6.5" fill="#12220c"/>
    <circle cx="134" cy="124" r="6.5" fill="#12220c"/>
    <circle cx="91.5" cy="120.5" r="2.3" fill="#fff"/>
    <circle cx="131.5" cy="120.5" r="2.3" fill="#fff"/>
    <path d="M84 158 Q98 170 110 162 Q122 155 134 165" fill="none" stroke="#3a2a12" stroke-width="5.5" stroke-linecap="round"/>
    <path d="M133 165 q4 6 1.5 11 q-4.5 1.5 -5.5 -3.5 Z" fill="#cde89b"/>
  </g>
</svg>
